# xmcd
#
# Track frame offsets:
#	150
#	11692
#	27112
#	43819
#	59172
#	73090
#	96206
#	113941
#	128497
#	144706
#	159089
#	184351
#	198458
#	211373
#	226822
#	240061
#	251838
#	270485
#	283682
#	301209
#	316495
#
# Disc length: 4419 seconds
#
# Revision: 1
# Processed by: cddbd v1.5.2PL0 Copyright (c) Steve Scherf et al.
# Submitted via: audiograbber 1.83.01
#
DISCID=2e114115
DTITLE=NCM - NCM 041
DYEAR=2007
DGENRE=Gospel
TTITLE0=Nothing But The Blood  - Randy Travis
TTITLE1=Lose My Soul  - Tobymac
TTITLE2=Set Free  - Gene and Lavada Triesch
TTITLE3=Wht Did Jesus Carry The Cross  - Claudia Walton
TTITLE4=Gift Of Love  - Chris Mercer
TTITLE5=I Coulden´t Fine The Words To Say Goodbye  - Dave Sheriff and Porter Wago
TTITLE5=ner and The Jordaniers
TTITLE6=Fall  - Luke Finch
TTITLE7=Ask The Man Upstairs  - Donny Richmond
TTITLE8=The Kingdom  - Bethany Dillon
TTITLE9=Open The Eyes Of My Heart  - Mid South Boys
TTITLE10=Amazing  - Lawson Spiller
TTITLE11=Lay Your Burdens Down  - Billy Chernoff
TTITLE12=Bring It Back Home - Carless
TTITLE13=A Vision Of The Cross - Don Shortslef
TTITLE14=Pour Out  - Shawn Mcdonald
TTITLE15=Are You Washed - Clint Mille and Golden Street Quartet
TTITLE16=Under The Blood  - The Messengers
TTITLE17=This Is The Day  - Jeff Koenig
TTITLE18=For Me  - Michael J Ramplin
TTITLE19=Praise Him  - Yussuf
TTITLE20=Heir To The Throne - Martha Daughtrey
EXTD=
EXTT0=
EXTT1=
EXTT2=
EXTT3=
EXTT4=
EXTT5=
EXTT6=
EXTT7=
EXTT8=
EXTT9=
EXTT10=
EXTT11=
EXTT12=
EXTT13=
EXTT14=
EXTT15=
EXTT16=
EXTT17=
EXTT18=
EXTT19=
EXTT20=
PLAYORDER=
